<svg xmlns="http://www.w3.org/2000/svg" width="612" height="612">
  <path fill="#ec1f46" d="M612 295.7a281.6 281.6 0 01-238.6 278 65 65 0 00.7-19.3l-1.8-16a245.8 245.8 0 00125.4-61.7c-2-1.7-4.1-4-6.2-6.9-9-13.2 2.8-26.4 2.8-38 0-11.4-23-10.5-23.8-18-2.9-26.2 16-26.5 26.2-36.6s-10-33-23-31.6c-13 1.4-49.8-6-46.4-34.1 4-34.3-43.6-31.2-50.5-47.2-10-23.3 6.6-51.9 28.2-58.4 30.6-9.2 60.7-34.1 58.4-62-2.7-31.4-17-59.8-40.4-76.6-24.4-10-50.7-16-78.2-17.6-24.6 1-46.2 6.5-45.2 17.7 2.4 27.6 80.8 34.8 67.6 60.5-6.8 13.5-58.3 32.4-48.7 52.4 6.3 13 21.6 1.9 15.9 26.9-2.6 11.4-12.7 33-28.2 34.4-15.9 1.5-29-40.5-72.2-41.8-20.3-.7-49 31.8-24.7 54.8 14.8 14 42.5-16.8 50.7 7.2 5.7 17-.8 52.4 26 67.3 9.9 5.4 25 10 39.8 17.6-22 4.5-49.2 13-81.2 25.3l-27-7.1c11.3-9.4 29.7-16 25-36.6-6.7-30.2-59.1-18.8-95.2-55-11.1-11-34.8-47.8-34.7-92A244.8 244.8 0 0087.3 333H86a82 82 0 00-32.8 6.9A281.5 281.5 0 01330.9 14.5c155 0 281.1 126.1 281.1 281.2zm-211 82l-68.6 31.5 1-15 44.6-20c-6.4-.5-13-.7-19.5-.7-24.6 0-66.1 12.5-112 30.7L99 365.3a51.4 51.4 0 00-40.4 6.2l-7.3 4.6c-7 4.4-7.1 14.7-.1 19.2l88.5 57.5A1090.2 1090.2 0 0081 485l-45.4-24c-7.4-4-16.2-4.5-24-1.4l-4.3 1.8a11.4 11.4 0 00-5.7 16.2l25 44.5c-9.4 8-14.8 14.8-14.8 19.5 0 14 17.2 17.4 32.3 17.4 27 0 383.6-81.6 383.6-155.6 0-14.6-10-22-26.5-25.9zM250.9 522l78.4-27.6c3.5-1.2 7.2 1 7.6 4.7l6.9 58.8A34.3 34.3 0 01324 593l-7.4 3.4c-4.6 2.2-10 1-13.4-2.8l-55-62.4a5.7 5.7 0 012.5-9.2z"/>
</svg>
