<svg width="176" height="19" fill="none" xmlns="http://www.w3.org/2000/svg"><path d="M14.24 13.83a3.6 3.6 0 01-1.31 2.87c-.4.33-.86.6-1.39.8-.51.21-1.05.37-1.61.49-.57.12-1.13.2-1.7.23a22.95 22.95 0 01-3.1 0 14.9 14.9 0 01-3.07-.51c-.5-.15-.97-.34-1.42-.55L.62 2.06a13.98 13.98 0 012.9-.84 15.14 15.14 0 014.68-.2c.57.07 1.12.19 1.64.35.53.17 1.02.38 1.47.65a4.57 4.57 0 011.98 2.3 4.88 4.88 0 01.1 2.98 3.42 3.42 0 01-2.53 2.29c.51.13.97.32 1.39.58a3.99 3.99 0 011.74 2.18c.17.46.25.95.25 1.48zM8.29 7.15c0-.23-.05-.42-.15-.58a1.33 1.33 0 00-.8-.62c-.15-.04-.29-.07-.41-.07-.16 0-.31.03-.46.07-.15.05-.3.1-.43.17l-.08 2.6c.18 0 .4-.02.67-.05.27-.03.52-.1.76-.2.25-.1.47-.26.64-.47.17-.2.26-.5.26-.85zm-1.67 3.82c-.23 0-.44.02-.66.07l-.04 2.67.34.07a2.56 2.56 0 00.88-.02c.2-.04.38-.11.55-.21a1.3 1.3 0 00.6-1.15c0-.3-.06-.54-.18-.73a1.34 1.34 0 00-.95-.64c-.2-.04-.37-.06-.54-.06zm21.1-2.44c0 .68-.05 1.36-.15 2.04-1.33.09-2.66.23-3.98.42l-3.96.56c.2.57.52 1.02.95 1.35.44.34.96.5 1.56.5.3 0 .65-.05 1.02-.17a8.85 8.85 0 002.16-1l.87-.56-.56 5.32a6.6 6.6 0 01-3.26 1.22c-.39.05-.77.07-1.15.07a6.43 6.43 0 01-6.2-4.23 10.73 10.73 0 01-.59-6.18c.14-.72.34-1.42.6-2.1.28-.66.62-1.29 1.02-1.86.42-.57.9-1.08 1.45-1.5a6.43 6.43 0 014.14-1.38 5.83 5.83 0 013.44 1.1c.45.33.84.73 1.17 1.2a8.54 8.54 0 011.3 3.32c.11.61.16 1.24.16 1.88zm-4.7-.6c0-.23-.02-.45-.06-.68a2.04 2.04 0 00-.24-.63c-.1-.19-.24-.34-.4-.46a1.07 1.07 0 00-.65-.18c-.31 0-.6.08-.83.25-.24.17-.44.38-.61.64a3.7 3.7 0 00-.43.82c-.1.3-.19.57-.24.82l3.47-.33v-.26zM40.5 12c0 1.07-.19 2-.56 2.78a5.27 5.27 0 01-1.53 1.92c-.64.5-1.39.87-2.26 1.11-.86.24-1.78.35-2.77.35-.39 0-.81-.05-1.27-.15a16.57 16.57 0 01-2.74-.87c-.43-.18-.82-.34-1.15-.5l.51-4.6c.67.4 1.4.71 2.2.92a9.83 9.83 0 002.94.3c.2-.02.4-.06.6-.11.19-.06.35-.15.49-.27.13-.12.2-.29.2-.5a.53.53 0 00-.14-.38.96.96 0 00-.37-.26 4.7 4.7 0 00-1.56-.26h-.37c-.67 0-1.29-.1-1.84-.31a4.2 4.2 0 01-1.42-.9c-.39-.38-.7-.85-.91-1.4a4.97 4.97 0 01-.33-1.84 5.4 5.4 0 012.04-4.33A6.75 6.75 0 0132.4 1.5a7.7 7.7 0 012.5-.4 15.44 15.44 0 012.39.18c.4.07.8.16 1.18.27.39.1.75.24 1.1.4l-.45 4.77c-.53-.18-1.1-.33-1.68-.45a8.03 8.03 0 00-3.13-.06c-.18.04-.34.1-.48.17a.87.87 0 00-.34.25.56.56 0 00-.12.4c.01.16.08.3.2.39.12.1.27.16.46.21.2.04.4.06.63.06a20.08 20.08 0 001.8-.06c.63.04 1.2.17 1.7.4a3.85 3.85 0 012.06 2.25c.19.51.28 1.09.28 1.71zM53.4 1.48l-.13 4.97-3.49.14-.42 10.87-4.95.26-.44-10.88-3.5.2.15-5.54 12.77-.02zm81.06 5.72a5 5 0 01-2.66 4.68c-.53.29-1.1.53-1.71.73a12.13 12.13 0 01-3.78.56v5h-5.47v-2.6a264.3 264.3 0 00.03-5.03 4536.1 4536.1 0 00.1-8.36 21.76 21.76 0 016.09-.9 10.81 10.81 0 013.52.62c.56.2 1.07.48 1.54.8a5.13 5.13 0 012.34 4.5zm-5.2.4c0-.51-.16-.9-.47-1.19-.3-.29-.7-.43-1.2-.43a4.56 4.56 0 00-1 .14l-.15 3.42.32.02h.32a2.35 2.35 0 001.51-.54c.2-.18.36-.38.48-.62.13-.24.19-.5.19-.8zm16.15 4.19l-.5 5.2-9.86.78.37-16.74h6.1l-.87 10.76h4.76zm15.32 5.2l-5.8.75-.71-2.65h-2.67l-.59 2.65-5.98-.58 4.67-15.61 6.51-.33 4.57 15.77zm-6.93-5.48l-.9-4.08-.86 4.08h1.76zm21.72.56a94.9 94.9 0 01-.11 5.23l-6.75-.12c.23-1.38.43-2.76.6-4.14a33.86 33.86 0 00.25-4.67 16.68 16.68 0 00-.15-1.64c-.04-.3-.1-.59-.18-.84a2.04 2.04 0 00-.27-.6c-.1-.17-.22-.25-.37-.25-.27 0-.5.08-.68.23-.18.16-.33.36-.46.61-.12.25-.2.52-.28.82a9.43 9.43 0 00-.25 2.44l-.09 4.13c-.02 1.36-.05 2.73-.1 4.12l-5.97.26.45-8.23c.15-2.72.26-5.47.35-8.22l5.53-.29-.05 1.88c.22-.27.45-.52.7-.75a4.6 4.6 0 011.74-1 4.32 4.32 0 012.78.18c.5.22.93.51 1.29.89.35.37.66.82.9 1.34.24.5.44 1.05.58 1.62.15.58.27 1.19.34 1.82a34.84 34.84 0 01.2 3.62v1.56z" fill="#333"/><path d="M71.16 1.48l-.12 4.97-3.5.14-.42 10.87-4.94.26-.45-10.88-3.49.2.14-5.54 12.78-.02zm14.91 7.54a8.57 8.57 0 01-.96 3.92 7.54 7.54 0 01-2.61 2.82 7.31 7.31 0 01-7.65.07 7.6 7.6 0 01-1.51-1.17 7.8 7.8 0 01-1.9-3.33 7.7 7.7 0 010-4 8.24 8.24 0 011.83-3.44 7.16 7.16 0 015.24-2.37c1.13 0 2.16.18 3.09.53a6.61 6.61 0 013.92 3.88c.37.92.55 1.95.55 3.1zm-5.2.3a3.13 3.13 0 00-.57-1.8 2.08 2.08 0 00-1.66-.84 2.28 2.28 0 00-2.2 1.56c-.1.3-.16.63-.16.97 0 .33.04.66.14.99.1.32.23.62.42.89.19.26.42.48.7.64.27.16.6.25.96.25a2.22 2.22 0 001.74-.8 3.06 3.06 0 00.63-1.85zm20-7.82c-.36 2.75-.66 5.49-.9 8.21a849 849 0 00-.72 8.22l-4.8.35.2-1.8a3.22 3.22 0 01-1.93.97 4.51 4.51 0 01-3.5-1.07c-.4-.33-.75-.72-1.06-1.16a8.55 8.55 0 01-1.29-2.9 7 7 0 01-.16-1.47c0-.7 0-1.43.03-2.18a44.37 44.37 0 01.42-4.52c.12-.74.27-1.45.44-2.13.95.04 1.9.09 2.87.12.96.04 1.92.06 2.87.04l-.54 2.05c-.17.68-.33 1.37-.47 2.06-.14.69-.25 1.38-.34 2.08a17.17 17.17 0 00-.1 2.81c.01.3.05.6.11.9.07.3.18.56.3.79.15.22.34.33.6.33.3 0 .56-.13.8-.38.23-.26.43-.6.61-1.03.18-.43.33-.93.46-1.49a29.61 29.61 0 00.67-5.38 39.05 39.05 0 00.03-3.42 100.07 100.07 0 003.03.05h1.17l1.2-.05zm14.43 5.2c0 .61-.05 1.17-.16 1.67a4.9 4.9 0 01-1.37 2.5c-.36.36-.8.7-1.3 1.01l2.78 4.97-5.27 1.03-1.8-4.99-1.46.05-.2 4.87h-5.05c.04-1.78.08-3.55.1-5.32l.14-5.32.04-2.67c.02-.88.05-1.77.1-2.67a15.34 15.34 0 014.84-.96c.55-.03 1.12-.05 1.7-.05.89 0 1.75.13 2.58.38.83.24 1.57.6 2.21 1.1a5.5 5.5 0 012.12 4.4zm-5.25.38c0-.33-.05-.63-.14-.9A1.84 1.84 0 00108.86 5a2.19 2.19 0 00-.92-.17c-.16 0-.3.01-.46.03-.14.02-.29.05-.43.09l-.19 4.35h.28c.34 0 .68-.04 1.02-.12.36-.09.67-.22.94-.4.28-.18.5-.41.68-.7.18-.28.27-.61.27-1z" fill="#EC1F46"/></svg>