<svg width="153" height="175" fill="none" xmlns="http://www.w3.org/2000/svg"><path d="M38 34.9a9.6 9.6 0 01-3.5 7.6 14 14 0 01-3.7 2.2 26.5 26.5 0 01-8.9 1.9A61.1 61.1 0 019.6 46a38.2 38.2 0 01-7.9-2.4V3.5a35.3 35.3 0 017.7-2.3 40.4 40.4 0 0116.9.5c1.3.4 2.6 1 3.9 1.7a12.2 12.2 0 015.2 6.1 13 13 0 01.3 8 9.1 9.1 0 01-6.7 6c1.3.4 2.6 1 3.7 1.6a10.6 10.6 0 014.6 5.8c.5 1.3.7 2.6.7 4zM22 17a3 3 0 00-.3-1.6c-.2-.4-.5-.8-1-1-.3-.3-.7-.5-1.1-.6a4 4 0 00-1.1-.2 4 4 0 00-1.3.2l-1.1.4-.2 7c.5 0 1 0 1.8-.2.7 0 1.4-.2 2-.5.7-.3 1.2-.7 1.7-1.3.5-.5.7-1.3.7-2.2zm-4.3 10.1a8 8 0 00-1.8.2l-.1 7.2a67.4 67.4 0 011.8.2l1.4-.1c.6-.1 1-.3 1.5-.6s.8-.7 1.1-1.1c.3-.5.5-1.1.5-2 0-.7-.2-1.4-.5-1.9s-.6-.9-1-1.1l-1.5-.6-1.4-.1zm56.2-6.4c0 1.8-.1 3.6-.4 5.4-3.5.2-7 .6-10.6 1.1l-10.6 1.5a7.8 7.8 0 002.6 3.6c1.1.9 2.5 1.4 4.1 1.4a9 9 0 002.8-.5 23.6 23.6 0 005.7-2.7c1-.5 1.7-1 2.3-1.5l-1.5 14.2c-.8.6-1.7 1.2-2.6 1.6a17.6 17.6 0 01-6 1.7l-3.1.1a18 18 0 01-10.3-3.1 21 21 0 01-6.2-8A26 26 0 0138 24.7a32.3 32.3 0 012-11.4c.8-1.8 1.7-3.4 2.8-5 1.1-1.5 2.4-2.8 3.9-4a17.1 17.1 0 0111-3.7 15.5 15.5 0 019.2 3c1.2.9 2.2 2 3.1 3.2a22.8 22.8 0 013.5 8.8c.3 1.7.4 3.3.4 5zM61.4 19c0-.6 0-1.2-.2-1.8-.1-.6-.3-1.1-.6-1.6s-.6-1-1.1-1.3c-.5-.3-1-.5-1.7-.5-.9 0-1.6.3-2.2.7-.7.5-1.2 1-1.7 1.7a16.7 16.7 0 00-1.8 4.4l9.3-.9v-.7zM108 30a17 17 0 01-1.5 7.4 14 14 0 01-4 5.1 17.2 17.2 0 01-6 3 28 28 0 01-7.5 1 44.3 44.3 0 01-13.8-4L76.7 30c1.8 1 3.8 1.9 5.9 2.5a26.2 26.2 0 007.8.7c.6 0 1.1 0 1.6-.2s1-.4 1.3-.8c.4-.3.5-.7.5-1.3 0-.4 0-.7-.3-1l-1-.7a12.5 12.5 0 00-4.2-.7h-1c-1.7 0-3.4-.3-4.9-.8-1.4-.6-2.7-1.4-3.7-2.4a11 11 0 01-2.5-3.7c-.6-1.5-.8-3.2-.8-5a14.4 14.4 0 015.4-11.5A18 18 0 0186.4 2c2.2-.7 4.4-1 6.7-1a41.2 41.2 0 019.5 1.2c1 .2 2 .6 2.9 1L104.3 16a35.9 35.9 0 00-9-1.7 23.4 23.4 0 00-3.8.4c-.5.1-1 .2-1.3.4-.4.2-.7.4-.9.7-.2.3-.3.7-.3 1 0 .5.2.9.5 1.1.3.3.8.4 1.3.6l1.6.1a53.6 53.6 0 004.8-.1c1.7 0 3.2.4 4.5 1a10.3 10.3 0 015.5 6c.5 1.4.8 3 .8 4.6zm34.4-28l-.3 13.2-9.3.4-1.2 29-13.2.6-1.2-29-9.3.6.4-14.8h34zM38 145.1c0 2-.3 3.8-1 5.4a13.3 13.3 0 01-6 7 24.9 24.9 0 01-9.7 3.2l-5 .3v13.3H1.7v-6.9a722.4 722.4 0 00.1-20.4v-7.6c0-2.5 0-5.1.2-7.7a58.1 58.1 0 0116.3-2.4 28.8 28.8 0 019.4 1.7c1.4.5 2.8 1.2 4 2a13.7 13.7 0 016.3 12zm-13.9 1a4 4 0 00-1.2-3.1 4.4 4.4 0 00-3.2-1.2 12.4 12.4 0 00-2.7.4l-.4 9.1.9.1h.8a6.3 6.3 0 004-1.4c.6-.5 1-1 1.3-1.7.4-.6.5-1.4.5-2.2zm43 11.2l-1.2 14-26.3 2 1-44.7h16.2l-2.3 28.7h12.7zm41 14l-15.5 2-2-7.2h-7l-1.6 7.1-16-1.6 12.5-41.6 17.4-.8 12.2 42zm-18.5-14.7l-2.4-10.9-2.3 10.9h4.7zm57.9 1.5a257 257 0 01-.3 14l-18-.4a257 257 0 001.6-11 90.2 90.2 0 00.5-14.5 30.9 30.9 0 00-.7-4.6c-.2-.6-.4-1.2-.7-1.6-.3-.4-.6-.7-1-.7-.7 0-1.3.2-1.8.7-.5.4-1 1-1.3 1.6a24.8 24.8 0 00-1.4 8.7 959.5 959.5 0 00-.5 22l-15.9.7a4413.5 4413.5 0 002.1-44l14.8-.7-.2 5a21 21 0 012-2 12.1 12.1 0 014.5-2.6 11.5 11.5 0 017.4.5c1.4.5 2.5 1.3 3.5 2.3 1 1 1.8 2.2 2.4 3.6.6 1.3 1.2 2.8 1.6 4.3a38.5 38.5 0 011.3 9.8l.1 4.7v4.2z" fill="#fff"/><path d="M34.7 66l-.3 13.2-9.3.4-1.2 29-13.1.7-1.2-29-9.3.5L.6 66h34zm39.8 20a22.8 22.8 0 01-2.6 10.5 20.1 20.1 0 01-7 7.5 19.5 19.5 0 01-24.4-3 20.8 20.8 0 01-5-8.8 20.5 20.5 0 010-10.6 22 22 0 014.8-9.2 19.9 19.9 0 018.6-5.6 23.2 23.2 0 0113.6.6A17.6 17.6 0 0173 77.9c1 2.5 1.5 5.2 1.5 8.3zm-14 .9a8.3 8.3 0 00-1.4-4.9 5.6 5.6 0 00-4.4-2.2c-1 0-1.9.2-2.7.5a6 6 0 00-3.2 3.7c-.3.8-.5 1.6-.5 2.6 0 .8.2 1.7.4 2.6.3.9.6 1.7 1.1 2.4a6 6 0 001.9 1.7 6 6 0 007.2-1.5c.5-.7 1-1.4 1.3-2.3.2-.8.4-1.7.4-2.6zM114 66a619 619 0 00-2.4 22l-2 21.8-12.7 1 .5-4.9c-.4.5-.9 1-1.4 1.3a8.6 8.6 0 01-3.7 1.3 12 12 0 01-9.4-2.8c-1-1-2-2-2.8-3.1a22.8 22.8 0 01-3.4-7.7c-.3-1.4-.4-2.7-.4-4a186.2 186.2 0 01.5-11.8 112.4 112.4 0 011.8-11.7 901.8 901.8 0 0015.3.4 2015.4 2015.4 0 00-2.6 11 71.1 71.1 0 00-1.2 13l.3 2.4c.2.8.4 1.5.8 2.1.4.6.9.9 1.6.9.7 0 1.5-.3 2-1 .7-.7 1.3-1.6 1.7-2.8a52 52 0 002.7-13.6 106.1 106.1 0 00.4-13.8 266.8 266.8 0 008 .1h3.2l3.2-.1zm38.5 13.9c0 1.6-.1 3-.4 4.4a13 13 0 01-3.7 6.7c-1 1-2.1 1.8-3.5 2.7l7.5 13.2-14 2.8-4.9-13.3-3.9.1-.5 13h-13.5a3327.1 3327.1 0 00.7-28.4V74l.3-7.1a40.9 40.9 0 0113-2.6l4.5-.1c2.3 0 4.6.3 6.8 1 2.3.6 4.2 1.6 6 3a14.6 14.6 0 015.6 11.7zm-14 1c0-.9-.1-1.7-.4-2.4a4.9 4.9 0 00-2.8-3.2 7.8 7.8 0 00-3.7-.4 7 7 0 00-1 .3l-.6 11.6h.8l2.7-.3a8 8 0 002.5-1c.7-.6 1.3-1.2 1.8-2 .5-.7.7-1.6.7-2.6z" fill="#EC1F46"/></svg>